<svg width="32" height="32" fill="none" xmlns="http://www.w3.org/2000/svg"><path fill-rule="evenodd" clip-rule="evenodd" d="M8.634 2.672l-.038-.003c-1.756-.082-4.233 2.03-5.149 3.557C2.443 7.598 2.423 9.42 3.3 11.527l.139.319C5.75 17.538 14.424 26.2 20.095 28.573c2.17 1.015 4.103 1.034 5.626-.064 1.34-.765 3.537-3.313 3.473-5.123-.06-.744-.406-1.352-.944-1.905l-.131-.13-.365-.338c-1.323-1.183-3.612-2.867-4.32-3.015-.832-.174-1.396-.018-2.285.472l-.331.188c-.633.365-.859.427-1.158.318-3.164-1.299-5.395-3.541-6.703-6.757-.085-.239-.043-.447.232-.951l.145-.258c.6-1.047.8-1.638.612-2.55l-.034-.118c-.31-.901-2.207-3.445-3.261-4.553l-.17-.171c-.55-.54-1.153-.887-1.847-.946zm-.147 1.947l.072.014c.127.035.276.123.444.267l.122.112.231.243c.896.99 2.632 3.323 2.69 3.602.054.262-.006.48-.29.997l-.15.263c-.625 1.096-.82 1.803-.46 2.803 1.52 3.738 4.134 6.365 7.816 7.876.95.347 1.623.209 2.577-.308l.326-.185c.648-.374.885-.455 1.173-.395.282.059 2.804 1.952 3.729 2.841l.108.108c.238.245.368.474.382.644.013.397-.384 1.143-1.086 1.957-.5.58-1.148 1.172-1.43 1.369l-.067.043c-.909.649-2.031.676-3.515.044l-.283-.126C15.75 24.642 7.686 16.65 5.358 11.398l-.138-.325C4.5 9.477 4.44 8.31 4.957 7.46l.104-.155c.6-.995 2.41-2.56 3.311-2.681l.115-.006zm10.742-1.627l.132.005c5.24.585 9.377 4.74 9.966 10.008a.974.974 0 01-.856 1.078.971.971 0 01-1.072-.86c-.488-4.362-3.914-7.802-8.252-8.286a.974.974 0 01-.858-1.078.974.974 0 01.812-.856l.128-.011zm.08 4.61l.13.016a6.714 6.714 0 015.293 5.32.97.97 0 11-1.905.373 4.768 4.768 0 00-3.759-3.778.975.975 0 01.112-1.93l.128-.002z" fill="#fff"/></svg>