<svg width="50" height="50" fill="none" xmlns="http://www.w3.org/2000/svg"><path d="M19.167 11.667h4.166c.5 0 .834-.334.834-.834V7.5c0-.5-.334-.833-.834-.833h-4.166c-.5 0-.834.333-.834.833v3.333c0 .5.334.834.834.834zM20 8.333h2.5V10H20V8.333zm6.667 3.334h4.166c.5 0 .834-.334.834-.834V7.5c0-.5-.334-.833-.834-.833h-4.166c-.5 0-.834.333-.834.833v3.333c0 .5.334.834.834.834zm.833-3.334H30V10h-2.5V8.333zm-8.333 10h4.166c.5 0 .834-.333.834-.833v-3.333c0-.5-.334-.834-.834-.834h-4.166c-.5 0-.834.334-.834.834V17.5c0 .5.334.833.834.833zM20 15h2.5v1.667H20V15zm6.667 3.333h4.166c.5 0 .834-.333.834-.833v-3.333c0-.5-.334-.834-.834-.834h-4.166c-.5 0-.834.334-.834.834V17.5c0 .5.334.833.834.833zM27.5 15H30v1.667h-2.5V15zm-8.333 10h4.166c.5 0 .834-.333.834-.833v-3.334c0-.5-.334-.833-.834-.833h-4.166c-.5 0-.834.333-.834.833v3.334c0 .5.334.833.834.833zM20 21.667h2.5v1.666H20v-1.666zM26.667 25h4.166c.5 0 .834-.333.834-.833v-3.334c0-.5-.334-.833-.834-.833h-4.166c-.5 0-.834.333-.834.833v3.334c0 .5.334.833.834.833zm.833-3.333H30v1.666h-2.5v-1.666zm-8.333 10h4.166c.5 0 .834-.334.834-.834V27.5c0-.5-.334-.833-.834-.833h-4.166c-.5 0-.834.333-.834.833v3.333c0 .5.334.834.834.834zM20 28.333h2.5V30H20v-1.667zm6.667 3.334h4.166c.5 0 .834-.334.834-.834V27.5c0-.5-.334-.833-.834-.833h-4.166c-.5 0-.834.333-.834.833v3.333c0 .5.334.834.834.834zm.833-3.334H30V30h-2.5v-1.667zm-8.333 10h4.166c.5 0 .834-.333.834-.833v-3.333c0-.5-.334-.834-.834-.834h-4.166c-.5 0-.834.334-.834.834V37.5c0 .5.334.833.834.833zM20 35h2.5v1.667H20V35zm6.667 3.333h4.166c.5 0 .834-.333.834-.833v-3.333c0-.5-.334-.834-.834-.834h-4.166c-.5 0-.834.334-.834.834V37.5c0 .5.334.833.834.833zM27.5 35H30v1.667h-2.5V35zM9.167 13.333H5c-.5 0-.833.334-.833.834V17.5c0 .5.333.833.833.833h4.167c.5 0 .833-.333.833-.833v-3.333c0-.5-.333-.834-.833-.834zm-.834 3.334h-2.5V15h2.5v1.667zM9.167 20H5c-.5 0-.833.333-.833.833v3.334c0 .5.333.833.833.833h4.167c.5 0 .833-.333.833-.833v-3.334c0-.5-.333-.833-.833-.833zm-.834 3.333h-2.5v-1.666h2.5v1.666zm.834 3.334H5c-.5 0-.833.333-.833.833v3.333c0 .5.333.834.833.834h4.167c.5 0 .833-.334.833-.834V27.5c0-.5-.333-.833-.833-.833zM8.333 30h-2.5v-1.667h2.5V30zm.834 3.333H5c-.5 0-.833.334-.833.834V37.5c0 .5.333.833.833.833h4.167c.5 0 .833-.333.833-.833v-3.333c0-.5-.333-.834-.833-.834zm-.834 3.334h-2.5V35h2.5v1.667zM40.833 25H45c.5 0 .833-.333.833-.833v-3.334c0-.5-.333-.833-.833-.833h-4.167c-.5 0-.833.333-.833.833v3.334c0 .5.333.833.833.833zm.834-3.333h2.5v1.666h-2.5v-1.666zm-.834 10H45c.5 0 .833-.334.833-.834V27.5c0-.5-.333-.833-.833-.833h-4.167c-.5 0-.833.333-.833.833v3.333c0 .5.333.834.833.834zm.834-3.334h2.5V30h-2.5v-1.667zm-.834 10H45c.5 0 .833-.333.833-.833v-3.333c0-.5-.333-.834-.833-.834h-4.167c-.5 0-.833.334-.833.834V37.5c0 .5.333.833.833.833zM41.667 35h2.5v1.667h-2.5V35z" fill="#fff"/><path d="M50 17.5v-3.333c0-.5-.333-.834-.833-.834H35V5c.5 0 .833-.333.833-.833V.833C35.833.333 35.5 0 35 0H15c-.5 0-.833.333-.833.833v3.334c0 .5.333.833.833.833v1.667H.833C.333 6.667 0 7 0 7.5v3.333c0 .5.333.834.833.834v31.666c-.5 0-.833.334-.833.834v5c0 .5.333.833.833.833h48.334c.5 0 .833-.333.833-.833v-5c0-.5-.333-.834-.833-.834v-25c.5 0 .833-.333.833-.833zM48.333 15v1.667H35V15h13.333zM35 21.667h1.667v1.666H35v-1.666zm0 6.666h1.667V30H35v-1.667zM35 35h1.667v1.667H35V35zM15.833 1.667h18.334v1.666H15.833V1.667zM33.333 5v38.333H16.667V5h16.666zM15 36.667h-1.667V35H15v1.667zM15 30h-1.667v-1.667H15V30zm0-6.667h-1.667v-1.666H15v1.666zm0-6.666h-1.667V15H15v1.667zM1.667 8.333H15V10H1.667V8.333zm.833 3.334H15v1.666h-2.5c-.5 0-.833.334-.833.834V17.5c0 .5.333.833.833.833H15V20h-2.5c-.5 0-.833.333-.833.833v3.334c0 .5.333.833.833.833H15v1.667h-2.5c-.5 0-.833.333-.833.833v3.333c0 .5.333.834.833.834H15v1.666h-2.5c-.5 0-.833.334-.833.834V37.5c0 .5.333.833.833.833H15v5H2.5V11.667zm45.833 36.666H1.667V45h46.666v3.333zm-.833-5H35v-5h2.5c.5 0 .833-.333.833-.833v-3.333c0-.5-.333-.834-.833-.834H35v-1.666h2.5c.5 0 .833-.334.833-.834V27.5c0-.5-.333-.833-.833-.833H35V25h2.5c.5 0 .833-.333.833-.833v-3.334c0-.5-.333-.833-.833-.833H35v-1.667h12.5v25z" fill="#fff"/></svg>