<svg width="47" height="38" fill="none" xmlns="http://www.w3.org/2000/svg"><path d="M46.792 8.244L42.886.432A.781.781 0 0042.187 0H6.25a.781.781 0 00-.699.432L1.645 8.244a.776.776 0 00-.083.35v13.281h-.78a.781.781 0 00-.782.781V36.72a.781.781 0 00.781.781h45.313a.781.781 0 00.781-.781V8.594a.777.777 0 00-.083-.35zM6.732 1.563h34.973l3.125 6.25H3.608l3.125-6.25zM42.97 15.624c.845 0 1.668-.274 2.343-.783v17.97H43.75v-9.374a.781.781 0 10-1.563 0v4.687h-2.343a.781.781 0 00-.782.781v3.907H37.5v-6.25h1.563a.781.781 0 100-1.563h-9.376a.781.781 0 100 1.563h1.563v6.25h-1.563v-3.907a.781.781 0 00-.78-.781h-2.345v-4.688a.781.781 0 10-1.562 0v9.375h-1.563V15.547a3.905 3.905 0 003.907-1.487 3.902 3.902 0 006.25 0 3.902 3.902 0 006.25 0 3.903 3.903 0 003.125 1.565zm-2.344 17.188v-3.126h1.563v3.125h-1.563zm-4.688-6.25v6.25h-3.124v-6.25h3.124zm-9.374 3.125h1.562v3.125h-1.563v-3.126zM3.125 9.375h4.688v2.344a2.343 2.343 0 11-4.688 0V9.375zm6.25 0h4.688v2.344a2.343 2.343 0 11-4.688 0V9.375zm18.75 0h4.688v2.344a2.343 2.343 0 11-4.688 0V9.375zm-6.25 2.344V9.375h4.688v2.344a2.343 2.343 0 11-4.688 0zm-6.25-2.344h4.688v2.344a2.343 2.343 0 11-4.688 0V9.375zm-.781 4.685a3.902 3.902 0 006.25 0c.222.296.485.559.781.782v7.033h-7.813v-7.033a3.94 3.94 0 00.782-.782zm-.781 9.377h7.812v9.375h-7.813v-9.374zm22.656-9.375a2.346 2.346 0 01-2.344-2.343V9.375h4.688v2.344a2.346 2.346 0 01-2.344 2.344zm-33.594.78a3.9 3.9 0 005.469-.782 3.905 3.905 0 003.906 1.487v17.265h-1.563V22.657a.781.781 0 00-.78-.781H3.124v-7.033zm6.25 8.595v12.5H1.562v-12.5h7.813zm1.563 12.5v-1.562h34.374v1.563H10.938zm32.03-21.874a2.346 2.346 0 01-2.343-2.344V9.375h4.688v2.344a2.346 2.346 0 01-2.344 2.344z" fill="#fff"/><path d="M3.906 26.563h3.125a.781.781 0 100-1.563H3.906a.781.781 0 100 1.563zm0 3.125h3.125a.781.781 0 100-1.563H3.906a.781.781 0 100 1.563zm0 3.125h3.125a.781.781 0 100-1.563H3.906a.781.781 0 100 1.563z" fill="#fff"/></svg>