<svg width="50" height="50" fill="none" xmlns="http://www.w3.org/2000/svg"><path d="M49.764 24.43L25.57.236a.807.807 0 00-1.14 0L.236 24.43a.806.806 0 00.57 1.376H4.84v19.355h-.807a.806.806 0 00-.806.807v3.225a.806.806 0 00.806.807h41.936a.806.806 0 00.806-.806v-3.226a.806.806 0 00-.806-.807h-.807V25.806h4.033a.807.807 0 00.57-1.376zM45.16 48.387H4.84v-1.613h40.32v1.613zm-24.193-3.226H11.29V30.645h9.678v14.516zm1.613 0V29.84a.806.806 0 00-.807-.807h-11.29a.807.807 0 00-.807.807v15.32H6.451V25.334L25 6.785l18.548 18.549V45.16H22.581zm22.108-20.968L25.57 5.076a.807.807 0 00-1.14 0L5.31 24.194H2.753L25 1.947l22.247 22.247h-2.558z" fill="#fff"/><path d="M30.645 20.161A5.645 5.645 0 1025 25.806a5.651 5.651 0 005.645-5.645zm-9.677 0a4.032 4.032 0 118.064 0 4.032 4.032 0 01-8.064 0zm20.162 8.871H25a.807.807 0 00-.806.807v11.29a.807.807 0 00.806.806h16.13a.807.807 0 00.806-.806v-11.29a.807.807 0 00-.807-.807zm-.807 5.645H33.87v-4.032h6.452v4.032zm-8.065-4.032v4.032h-6.452v-4.032h6.452zm-6.452 5.645h6.452v4.032h-6.452V36.29zm8.065 4.032V36.29h6.452v4.032H33.87zm-19.355-4.838h-1.613v3.226h1.613v-3.226z" fill="#fff"/></svg>