<svg width="50" height="50" fill="none" xmlns="http://www.w3.org/2000/svg"><path d="M48.387 32.258V8.871a4.037 4.037 0 00-4.032-4.032V1.613h-1.613v3.226h-1.613V0h-1.613v4.839h-1.613V1.613H36.29v3.226h-1.613a4.037 4.037 0 00-4.032 4.032v7.258h-4.032a4.037 4.037 0 00-4.032 4.032v.807h-.807A4.037 4.037 0 0017.742 25v7.258h-1.015a104.05 104.05 0 01-1.13-9.504l2.711-2.71-.933-1.867 1.98-.66v-4.388l-1.98-.66.933-1.867L15.205 7.5l-1.867.934-.66-1.981H8.29l-.66 1.98-1.866-.934-3.104 3.104.934 1.866-1.981.66v4.388l1.98.66-.933 1.867 2.709 2.709c-.28 3.885-.776 7.787-1.494 11.612l-.217 1.16L0 39.182V50h50V32.258h-1.613zM27.42 25.806v1.613h-8.064v-1.613h8.064zm20.968 8.065v1.613H5.98l1.613-1.613h40.795zm-12.903-1.613v-3.226h8.064v3.226h-8.064zm0-6.452h8.064v1.613h-8.064v-1.613zm.148-1.613a2.416 2.416 0 012.271-1.612h3.226c1.05 0 1.937.676 2.271 1.613h-7.768zm5.497-3.225h-.806v-.807c0-.276-.029-.546-.082-.806h1.694v1.694a4.031 4.031 0 00-.806-.081zm-2.42-11.29h3.226v1.612H38.71V9.677zm0 3.225h3.226v1.613H38.71v-1.613zm3.226-4.838H38.71V6.452h3.225v1.613zm-3.225 8.064h3.225v1.613h-2.44a4.05 4.05 0 00-.785-.786v-.827zm0 4.032v.807h-.807A4.037 4.037 0 0033.871 25v7.258h-1.613V17.742h4.032a2.422 2.422 0 012.42 2.42zm8.064-11.29v23.387h-1.613V25c0-1.312-.64-2.468-1.613-3.205V6.452h.807a2.422 2.422 0 012.42 2.419zm-14.516 0a2.422 2.422 0 012.42-2.42h2.419v9.76a4.031 4.031 0 00-.807-.082h-4.032V8.871zm-8.065 11.29a2.422 2.422 0 012.42-2.42h4.032v14.517h-1.613V25A4.037 4.037 0 0025 20.968h-.806v-.807zm-2.419 2.42H25c1.05 0 1.937.676 2.271 1.613h-7.767a2.414 2.414 0 012.27-1.613zm-2.42 6.451h8.065v3.226h-8.064v-3.226zM5.338 17.633a5.931 5.931 0 01-.125-.306l-.136-.355-1.85-.618V14.29l1.85-.617.136-.355c.04-.104.08-.206.125-.306l.157-.35-.872-1.743L6.08 9.46l1.743.872.35-.156c.099-.044.2-.085.302-.124l.359-.135.617-1.852h2.064l.618 1.853.359.135c.102.039.203.08.302.124l.35.156 1.743-.872 1.459 1.46-.872 1.743.157.349c.045.1.084.202.125.306l.136.355 1.849.617v2.064l-1.85.617-.136.355c-.04.104-.081.206-.125.306l-.157.35.872 1.743-1.459 1.459-1.744-.872-.349.156c-.099.045-.2.085-.302.124l-.359.135-.618 1.853H9.452l-.618-1.854-.359-.135a5.474 5.474 0 01-.302-.123l-.35-.157-1.742.873-1.46-1.46.873-1.743-.157-.349zm1.667 4.893l.626-.313.66 1.98h4.387l.66-1.98.624.312c.224 3.244.605 6.51 1.132 9.732h-8.17l-1.27 1.27a105.19 105.19 0 001.35-11.001zM1.613 39.85l2.753-2.753h44.021v1.613H22.581v9.677h-1.613v-8.064h-4.839v8.064h-1.613v-8.064H9.677v8.064H8.065v-8.064h-4.84v8.064H1.614V39.85zm33.87.473v3.225h-4.838v-3.225h4.839zm-6.45 3.225h-4.84v-3.225h4.84v3.225zm-4.84 1.613h4.84v3.226h-4.84v-3.226zm6.452 0h4.839v3.226h-4.839v-3.226zm6.452 0h4.838v3.226h-4.838v-3.226zm0-1.613v-3.225h4.838v3.225h-4.838zm6.451-3.225h4.84v3.225h-4.84v-3.225zm-24.193 8.064h-1.613v-6.452h1.613v6.452zm-6.452 0H11.29v-6.452h1.613v6.452zm-6.451 0H4.839v-6.452h1.613v6.452zm37.096 0v-3.226h4.84v3.226h-4.84z" fill="#fff"/><path d="M10.484 19.355a4.037 4.037 0 004.032-4.032 4.037 4.037 0 00-4.032-4.033 4.037 4.037 0 00-4.032 4.033 4.037 4.037 0 004.032 4.032zm0-6.452a2.422 2.422 0 012.42 2.42 2.422 2.422 0 01-2.42 2.419 2.422 2.422 0 01-2.42-2.42 2.422 2.422 0 012.42-2.419z" fill="#fff"/></svg>